<mxfile host="app.diagrams.net" modified="2023-05-02T11:18:48.310Z" agent="Mozilla/5.0 (Windows NT 10.0; Win64; x64) AppleWebKit/537.36 (KHTML, like Gecko) Chrome/112.0.0.0 Safari/537.36" etag="lpgrFYwoSC3VFjHe2Jny" version="21.2.1" type="device" pages="3">
  <diagram id="C5RBs43oDa-KdzZeNtuy" name="Easy">
    <mxGraphModel dx="1434" dy="800" grid="1" gridSize="10" guides="1" tooltips="1" connect="1" arrows="1" fold="1" page="1" pageScale="1" pageWidth="827" pageHeight="1169" math="0" shadow="0">
      <root>
        <mxCell id="WIyWlLk6GJQsqaUBKTNV-0" />
        <mxCell id="WIyWlLk6GJQsqaUBKTNV-1" parent="WIyWlLk6GJQsqaUBKTNV-0" />
        <mxCell id="zkfFHV4jXpPFQw0GAbJ--0" value="Kalkulacka" style="swimlane;fontStyle=2;align=center;verticalAlign=top;childLayout=stackLayout;horizontal=1;startSize=26;horizontalStack=0;resizeParent=1;resizeLast=0;collapsible=1;marginBottom=0;rounded=0;shadow=0;strokeWidth=1;" parent="WIyWlLk6GJQsqaUBKTNV-1" vertex="1">
          <mxGeometry x="220" y="120" width="160" height="250" as="geometry">
            <mxRectangle x="230" y="140" width="160" height="26" as="alternateBounds" />
          </mxGeometry>
        </mxCell>
        <mxCell id="zkfFHV4jXpPFQw0GAbJ--1" value="-prvniCislo" style="text;align=left;verticalAlign=top;spacingLeft=4;spacingRight=4;overflow=hidden;rotatable=0;points=[[0,0.5],[1,0.5]];portConstraint=eastwest;" parent="zkfFHV4jXpPFQw0GAbJ--0" vertex="1">
          <mxGeometry y="26" width="160" height="26" as="geometry" />
        </mxCell>
        <mxCell id="zkfFHV4jXpPFQw0GAbJ--2" value="-druheCislo" style="text;align=left;verticalAlign=top;spacingLeft=4;spacingRight=4;overflow=hidden;rotatable=0;points=[[0,0.5],[1,0.5]];portConstraint=eastwest;rounded=0;shadow=0;html=0;" parent="zkfFHV4jXpPFQw0GAbJ--0" vertex="1">
          <mxGeometry y="52" width="160" height="26" as="geometry" />
        </mxCell>
        <mxCell id="zkfFHV4jXpPFQw0GAbJ--3" value="-operace" style="text;align=left;verticalAlign=top;spacingLeft=4;spacingRight=4;overflow=hidden;rotatable=0;points=[[0,0.5],[1,0.5]];portConstraint=eastwest;rounded=0;shadow=0;html=0;" parent="zkfFHV4jXpPFQw0GAbJ--0" vertex="1">
          <mxGeometry y="78" width="160" height="26" as="geometry" />
        </mxCell>
        <mxCell id="zkfFHV4jXpPFQw0GAbJ--4" value="" style="line;html=1;strokeWidth=1;align=left;verticalAlign=middle;spacingTop=-1;spacingLeft=3;spacingRight=3;rotatable=0;labelPosition=right;points=[];portConstraint=eastwest;" parent="zkfFHV4jXpPFQw0GAbJ--0" vertex="1">
          <mxGeometry y="104" width="160" height="8" as="geometry" />
        </mxCell>
        <mxCell id="zkfFHV4jXpPFQw0GAbJ--5" value="+nactiPrvniCislo&#xa;+nactiDruheCislo&#xa;+nactiOperaci&#xa;+Vypocti&#xa;&#xa;-secti&#xa;-odecti&#xa;-vynasob&#xa;-vydel" style="text;align=left;verticalAlign=top;spacingLeft=4;spacingRight=4;overflow=hidden;rotatable=0;points=[[0,0.5],[1,0.5]];portConstraint=eastwest;" parent="zkfFHV4jXpPFQw0GAbJ--0" vertex="1">
          <mxGeometry y="112" width="160" height="138" as="geometry" />
        </mxCell>
      </root>
    </mxGraphModel>
  </diagram>
  <diagram id="f1dlOr10e8zWPcoPnTSm" name="Moderate">
    <mxGraphModel dx="1434" dy="800" grid="1" gridSize="10" guides="1" tooltips="1" connect="1" arrows="1" fold="1" page="1" pageScale="1" pageWidth="827" pageHeight="1169" math="0" shadow="0">
      <root>
        <mxCell id="0" />
        <mxCell id="1" parent="0" />
        <mxCell id="yb0rNrpArHdKfz-12vQY-5" value="Kalkulacka" style="swimlane;fontStyle=1;align=center;verticalAlign=top;childLayout=stackLayout;horizontal=1;startSize=26;horizontalStack=0;resizeParent=1;resizeParentMax=0;resizeLast=0;collapsible=1;marginBottom=0;whiteSpace=wrap;html=1;" vertex="1" parent="1">
          <mxGeometry x="40" y="610" width="260" height="270" as="geometry" />
        </mxCell>
        <mxCell id="yb0rNrpArHdKfz-12vQY-6" value="-puvodniMena : string&lt;br&gt;-cilovaMena : string&lt;br&gt;-castka : double&lt;br&gt;-kurz : double" style="text;strokeColor=none;fillColor=none;align=left;verticalAlign=top;spacingLeft=4;spacingRight=4;overflow=hidden;rotatable=0;points=[[0,0.5],[1,0.5]];portConstraint=eastwest;whiteSpace=wrap;html=1;" vertex="1" parent="yb0rNrpArHdKfz-12vQY-5">
          <mxGeometry y="26" width="260" height="94" as="geometry" />
        </mxCell>
        <mxCell id="yb0rNrpArHdKfz-12vQY-7" value="" style="line;strokeWidth=1;fillColor=none;align=left;verticalAlign=middle;spacingTop=-1;spacingLeft=3;spacingRight=3;rotatable=0;labelPosition=right;points=[];portConstraint=eastwest;strokeColor=inherit;" vertex="1" parent="yb0rNrpArHdKfz-12vQY-5">
          <mxGeometry y="120" width="260" height="8" as="geometry" />
        </mxCell>
        <mxCell id="yb0rNrpArHdKfz-12vQY-8" value="+nactiCilovouMenu : void&lt;br&gt;+nactiPuvodniMenu : void&lt;br&gt;+nastavitKurzManualne : void&lt;br&gt;+zadatHodnotu : void&lt;br&gt;-Vypocet(castka : double, kurz: double) : double&lt;br&gt;&lt;br&gt;&lt;br&gt;&lt;br&gt;&lt;br&gt;&lt;br&gt;" style="text;strokeColor=none;fillColor=none;align=left;verticalAlign=top;spacingLeft=4;spacingRight=4;overflow=hidden;rotatable=0;points=[[0,0.5],[1,0.5]];portConstraint=eastwest;whiteSpace=wrap;html=1;" vertex="1" parent="yb0rNrpArHdKfz-12vQY-5">
          <mxGeometry y="128" width="260" height="142" as="geometry" />
        </mxCell>
        <mxCell id="yb0rNrpArHdKfz-12vQY-13" value="StahnoutKurz" style="swimlane;fontStyle=1;align=center;verticalAlign=top;childLayout=stackLayout;horizontal=1;startSize=26;horizontalStack=0;resizeParent=1;resizeParentMax=0;resizeLast=0;collapsible=1;marginBottom=0;whiteSpace=wrap;html=1;" vertex="1" parent="1">
          <mxGeometry x="520" y="720" width="220" height="100" as="geometry" />
        </mxCell>
        <mxCell id="yb0rNrpArHdKfz-12vQY-14" value="- url: string" style="text;strokeColor=none;fillColor=none;align=left;verticalAlign=top;spacingLeft=4;spacingRight=4;overflow=hidden;rotatable=0;points=[[0,0.5],[1,0.5]];portConstraint=eastwest;whiteSpace=wrap;html=1;" vertex="1" parent="yb0rNrpArHdKfz-12vQY-13">
          <mxGeometry y="26" width="220" height="26" as="geometry" />
        </mxCell>
        <mxCell id="yb0rNrpArHdKfz-12vQY-15" value="" style="line;strokeWidth=1;fillColor=none;align=left;verticalAlign=middle;spacingTop=-1;spacingLeft=3;spacingRight=3;rotatable=0;labelPosition=right;points=[];portConstraint=eastwest;strokeColor=inherit;" vertex="1" parent="yb0rNrpArHdKfz-12vQY-13">
          <mxGeometry y="52" width="220" height="8" as="geometry" />
        </mxCell>
        <mxCell id="yb0rNrpArHdKfz-12vQY-16" value="+stahnoutKurz(url : string) : double" style="text;strokeColor=none;fillColor=none;align=left;verticalAlign=top;spacingLeft=4;spacingRight=4;overflow=hidden;rotatable=0;points=[[0,0.5],[1,0.5]];portConstraint=eastwest;whiteSpace=wrap;html=1;" vertex="1" parent="yb0rNrpArHdKfz-12vQY-13">
          <mxGeometry y="60" width="220" height="40" as="geometry" />
        </mxCell>
        <mxCell id="yb0rNrpArHdKfz-12vQY-17" value="" style="endArrow=open;endFill=1;endSize=12;html=1;rounded=0;exitX=0;exitY=0.5;exitDx=0;exitDy=0;entryX=1;entryY=0.5;entryDx=0;entryDy=0;" edge="1" parent="1" source="yb0rNrpArHdKfz-12vQY-14" target="yb0rNrpArHdKfz-12vQY-6">
          <mxGeometry width="160" relative="1" as="geometry">
            <mxPoint x="330" y="610" as="sourcePoint" />
            <mxPoint x="490" y="610" as="targetPoint" />
          </mxGeometry>
        </mxCell>
      </root>
    </mxGraphModel>
  </diagram>
  <diagram id="ZlJEf4pjv7I3Ue7skhu0" name="Hard">
    <mxGraphModel dx="1434" dy="1969" grid="1" gridSize="10" guides="1" tooltips="1" connect="1" arrows="1" fold="1" page="1" pageScale="1" pageWidth="827" pageHeight="1169" math="0" shadow="0">
      <root>
        <mxCell id="0" />
        <mxCell id="1" parent="0" />
        <mxCell id="VudI-zjtM5ZN9jTIgjhd-36" style="edgeStyle=orthogonalEdgeStyle;rounded=0;orthogonalLoop=1;jettySize=auto;html=1;entryX=-0.012;entryY=0.776;entryDx=0;entryDy=0;entryPerimeter=0;endArrow=diamondThin;endFill=0;endSize=24;" edge="1" parent="1" source="VudI-zjtM5ZN9jTIgjhd-1" target="VudI-zjtM5ZN9jTIgjhd-10">
          <mxGeometry relative="1" as="geometry" />
        </mxCell>
        <mxCell id="VudI-zjtM5ZN9jTIgjhd-1" value="User" style="swimlane;fontStyle=1;align=center;verticalAlign=top;childLayout=stackLayout;horizontal=1;startSize=26;horizontalStack=0;resizeParent=1;resizeParentMax=0;resizeLast=0;collapsible=1;marginBottom=0;whiteSpace=wrap;html=1;" vertex="1" parent="1">
          <mxGeometry y="120" width="180" height="34" as="geometry" />
        </mxCell>
        <mxCell id="VudI-zjtM5ZN9jTIgjhd-3" value="" style="line;strokeWidth=1;fillColor=none;align=left;verticalAlign=middle;spacingTop=-1;spacingLeft=3;spacingRight=3;rotatable=0;labelPosition=right;points=[];portConstraint=eastwest;strokeColor=inherit;" vertex="1" parent="VudI-zjtM5ZN9jTIgjhd-1">
          <mxGeometry y="26" width="180" height="8" as="geometry" />
        </mxCell>
        <mxCell id="VudI-zjtM5ZN9jTIgjhd-37" style="edgeStyle=orthogonalEdgeStyle;rounded=0;orthogonalLoop=1;jettySize=auto;html=1;endArrow=block;endFill=0;endSize=12;" edge="1" parent="1" source="VudI-zjtM5ZN9jTIgjhd-5">
          <mxGeometry relative="1" as="geometry">
            <mxPoint x="80" y="160" as="targetPoint" />
          </mxGeometry>
        </mxCell>
        <mxCell id="VudI-zjtM5ZN9jTIgjhd-5" value="Clen" style="swimlane;fontStyle=1;align=center;verticalAlign=top;childLayout=stackLayout;horizontal=1;startSize=26;horizontalStack=0;resizeParent=1;resizeParentMax=0;resizeLast=0;collapsible=1;marginBottom=0;whiteSpace=wrap;html=1;" vertex="1" parent="1">
          <mxGeometry y="260" width="160" height="88" as="geometry" />
        </mxCell>
        <mxCell id="VudI-zjtM5ZN9jTIgjhd-6" value="-nick : string&lt;br&gt;-otiskHesla : string&lt;br&gt;-email : string" style="text;strokeColor=none;fillColor=none;align=left;verticalAlign=top;spacingLeft=4;spacingRight=4;overflow=hidden;rotatable=0;points=[[0,0.5],[1,0.5]];portConstraint=eastwest;whiteSpace=wrap;html=1;" vertex="1" parent="VudI-zjtM5ZN9jTIgjhd-5">
          <mxGeometry y="26" width="160" height="54" as="geometry" />
        </mxCell>
        <mxCell id="VudI-zjtM5ZN9jTIgjhd-7" value="" style="line;strokeWidth=1;fillColor=none;align=left;verticalAlign=middle;spacingTop=-1;spacingLeft=3;spacingRight=3;rotatable=0;labelPosition=right;points=[];portConstraint=eastwest;strokeColor=inherit;" vertex="1" parent="VudI-zjtM5ZN9jTIgjhd-5">
          <mxGeometry y="80" width="160" height="8" as="geometry" />
        </mxCell>
        <mxCell id="VudI-zjtM5ZN9jTIgjhd-9" value="Databaze" style="swimlane;fontStyle=1;align=center;verticalAlign=top;childLayout=stackLayout;horizontal=1;startSize=26;horizontalStack=0;resizeParent=1;resizeParentMax=0;resizeLast=0;collapsible=1;marginBottom=0;whiteSpace=wrap;html=1;" vertex="1" parent="1">
          <mxGeometry x="280" y="-130" width="380" height="310" as="geometry" />
        </mxCell>
        <mxCell id="VudI-zjtM5ZN9jTIgjhd-10" value="-uzivatele : vector&amp;lt;User&amp;gt;&lt;br&gt;-zapasy : vector&amp;lt;Zapas&amp;gt;&lt;br&gt;-tipy : vector&amp;lt;Tip&amp;gt;&lt;br&gt;" style="text;strokeColor=none;fillColor=none;align=left;verticalAlign=top;spacingLeft=4;spacingRight=4;overflow=hidden;rotatable=0;points=[[0,0.5],[1,0.5]];portConstraint=eastwest;whiteSpace=wrap;html=1;" vertex="1" parent="VudI-zjtM5ZN9jTIgjhd-9">
          <mxGeometry y="26" width="380" height="74" as="geometry" />
        </mxCell>
        <mxCell id="VudI-zjtM5ZN9jTIgjhd-11" value="" style="line;strokeWidth=1;fillColor=none;align=left;verticalAlign=middle;spacingTop=-1;spacingLeft=3;spacingRight=3;rotatable=0;labelPosition=right;points=[];portConstraint=eastwest;strokeColor=inherit;" vertex="1" parent="VudI-zjtM5ZN9jTIgjhd-9">
          <mxGeometry y="100" width="380" height="8" as="geometry" />
        </mxCell>
        <mxCell id="VudI-zjtM5ZN9jTIgjhd-12" value="+registrace(nick : string, otiskHesla : string, email : string) : void&lt;br&gt;&lt;br&gt;&lt;br&gt;+opravneniClen(user : User) : void&lt;br&gt;+opravneniAdmin(user : User) : void&lt;br&gt;&lt;br&gt;+pridatTip() : void&lt;br&gt;+pridatKomentar() : void&amp;nbsp;&lt;br style=&quot;border-color: var(--border-color);&quot;&gt;&lt;br&gt;+pridatZapas() : void&lt;br&gt;+smazatTip ( tip : Tip) : void&lt;br style=&quot;border-color: var(--border-color);&quot;&gt;+upravitZapas(zapas : Zapas) : void&lt;br style=&quot;border-color: var(--border-color);&quot;&gt;+smazatZapas(zapas : Zapas) : void&lt;br style=&quot;border-color: var(--border-color);&quot;&gt;" style="text;strokeColor=none;fillColor=none;align=left;verticalAlign=top;spacingLeft=4;spacingRight=4;overflow=hidden;rotatable=0;points=[[0,0.5],[1,0.5]];portConstraint=eastwest;whiteSpace=wrap;html=1;" vertex="1" parent="VudI-zjtM5ZN9jTIgjhd-9">
          <mxGeometry y="108" width="380" height="202" as="geometry" />
        </mxCell>
        <mxCell id="VudI-zjtM5ZN9jTIgjhd-57" style="edgeStyle=orthogonalEdgeStyle;rounded=0;orthogonalLoop=1;jettySize=auto;html=1;entryX=0.997;entryY=0.189;entryDx=0;entryDy=0;entryPerimeter=0;endArrow=diamondThin;endFill=0;endSize=24;" edge="1" parent="1" source="VudI-zjtM5ZN9jTIgjhd-13" target="VudI-zjtM5ZN9jTIgjhd-10">
          <mxGeometry relative="1" as="geometry" />
        </mxCell>
        <mxCell id="VudI-zjtM5ZN9jTIgjhd-13" value="Zapas" style="swimlane;fontStyle=1;align=center;verticalAlign=top;childLayout=stackLayout;horizontal=1;startSize=26;horizontalStack=0;resizeParent=1;resizeParentMax=0;resizeLast=0;collapsible=1;marginBottom=0;whiteSpace=wrap;html=1;" vertex="1" parent="1">
          <mxGeometry x="690" y="440" width="320" height="200" as="geometry" />
        </mxCell>
        <mxCell id="VudI-zjtM5ZN9jTIgjhd-14" value="# tym1 : string&lt;br&gt;# tym2 : string&lt;br&gt;# datum : time_t&lt;br&gt;# poznamka : string&lt;br&gt;- komentare : vector &amp;lt;komentar&amp;gt;" style="text;strokeColor=none;fillColor=none;align=left;verticalAlign=top;spacingLeft=4;spacingRight=4;overflow=hidden;rotatable=0;points=[[0,0.5],[1,0.5]];portConstraint=eastwest;whiteSpace=wrap;html=1;" vertex="1" parent="VudI-zjtM5ZN9jTIgjhd-13">
          <mxGeometry y="26" width="320" height="82" as="geometry" />
        </mxCell>
        <mxCell id="VudI-zjtM5ZN9jTIgjhd-15" value="" style="line;strokeWidth=1;fillColor=none;align=left;verticalAlign=middle;spacingTop=-1;spacingLeft=3;spacingRight=3;rotatable=0;labelPosition=right;points=[];portConstraint=eastwest;strokeColor=inherit;" vertex="1" parent="VudI-zjtM5ZN9jTIgjhd-13">
          <mxGeometry y="108" width="320" height="8" as="geometry" />
        </mxCell>
        <mxCell id="VudI-zjtM5ZN9jTIgjhd-16" value="+vypis() : void&lt;br&gt;+vypisKomentare() : void&lt;br&gt;+pridejKomentar(komentar: Komentar): void&lt;br&gt;+smazatKomentar(komentar : Komentar) : void" style="text;strokeColor=none;fillColor=none;align=left;verticalAlign=top;spacingLeft=4;spacingRight=4;overflow=hidden;rotatable=0;points=[[0,0.5],[1,0.5]];portConstraint=eastwest;whiteSpace=wrap;html=1;" vertex="1" parent="VudI-zjtM5ZN9jTIgjhd-13">
          <mxGeometry y="116" width="320" height="84" as="geometry" />
        </mxCell>
        <mxCell id="VudI-zjtM5ZN9jTIgjhd-40" style="edgeStyle=orthogonalEdgeStyle;rounded=0;orthogonalLoop=1;jettySize=auto;html=1;entryX=1.025;entryY=0.881;entryDx=0;entryDy=0;entryPerimeter=0;endArrow=diamondThin;endFill=0;endSize=24;strokeWidth=1;" edge="1" parent="1" source="VudI-zjtM5ZN9jTIgjhd-17" target="VudI-zjtM5ZN9jTIgjhd-10">
          <mxGeometry relative="1" as="geometry" />
        </mxCell>
        <mxCell id="VudI-zjtM5ZN9jTIgjhd-17" value="Tip" style="swimlane;fontStyle=1;align=center;verticalAlign=top;childLayout=stackLayout;horizontal=1;startSize=26;horizontalStack=0;resizeParent=1;resizeParentMax=0;resizeLast=0;collapsible=1;marginBottom=0;whiteSpace=wrap;html=1;" vertex="1" parent="1">
          <mxGeometry x="610" y="226" width="160" height="114" as="geometry" />
        </mxCell>
        <mxCell id="VudI-zjtM5ZN9jTIgjhd-18" value="-skoreTym1 : int&lt;br&gt;-skoreTym2 : int&lt;br&gt;-zapas : Zapas" style="text;strokeColor=none;fillColor=none;align=left;verticalAlign=top;spacingLeft=4;spacingRight=4;overflow=hidden;rotatable=0;points=[[0,0.5],[1,0.5]];portConstraint=eastwest;whiteSpace=wrap;html=1;" vertex="1" parent="VudI-zjtM5ZN9jTIgjhd-17">
          <mxGeometry y="26" width="160" height="54" as="geometry" />
        </mxCell>
        <mxCell id="VudI-zjtM5ZN9jTIgjhd-19" value="" style="line;strokeWidth=1;fillColor=none;align=left;verticalAlign=middle;spacingTop=-1;spacingLeft=3;spacingRight=3;rotatable=0;labelPosition=right;points=[];portConstraint=eastwest;strokeColor=inherit;" vertex="1" parent="VudI-zjtM5ZN9jTIgjhd-17">
          <mxGeometry y="80" width="160" height="8" as="geometry" />
        </mxCell>
        <mxCell id="VudI-zjtM5ZN9jTIgjhd-20" value="+ method(type): type" style="text;strokeColor=none;fillColor=none;align=left;verticalAlign=top;spacingLeft=4;spacingRight=4;overflow=hidden;rotatable=0;points=[[0,0.5],[1,0.5]];portConstraint=eastwest;whiteSpace=wrap;html=1;" vertex="1" parent="VudI-zjtM5ZN9jTIgjhd-17">
          <mxGeometry y="88" width="160" height="26" as="geometry" />
        </mxCell>
        <mxCell id="VudI-zjtM5ZN9jTIgjhd-38" style="edgeStyle=orthogonalEdgeStyle;rounded=0;orthogonalLoop=1;jettySize=auto;html=1;entryX=0.5;entryY=1;entryDx=0;entryDy=0;endArrow=block;endFill=0;endSize=12;exitX=0.307;exitY=-0.019;exitDx=0;exitDy=0;exitPerimeter=0;" edge="1" parent="1" source="VudI-zjtM5ZN9jTIgjhd-21" target="VudI-zjtM5ZN9jTIgjhd-5">
          <mxGeometry relative="1" as="geometry">
            <mxPoint x="80" y="430" as="targetPoint" />
          </mxGeometry>
        </mxCell>
        <mxCell id="VudI-zjtM5ZN9jTIgjhd-21" value="Admin" style="swimlane;fontStyle=1;align=center;verticalAlign=top;childLayout=stackLayout;horizontal=1;startSize=26;horizontalStack=0;resizeParent=1;resizeParentMax=0;resizeLast=0;collapsible=1;marginBottom=0;whiteSpace=wrap;html=1;" vertex="1" parent="1">
          <mxGeometry y="480" width="280" height="160" as="geometry" />
        </mxCell>
        <mxCell id="VudI-zjtM5ZN9jTIgjhd-23" value="" style="line;strokeWidth=1;fillColor=none;align=left;verticalAlign=middle;spacingTop=-1;spacingLeft=3;spacingRight=3;rotatable=0;labelPosition=right;points=[];portConstraint=eastwest;strokeColor=inherit;" vertex="1" parent="VudI-zjtM5ZN9jTIgjhd-21">
          <mxGeometry y="26" width="280" height="8" as="geometry" />
        </mxCell>
        <mxCell id="VudI-zjtM5ZN9jTIgjhd-24" value="+udelitAdminPravo(uzivatel: Clen) : void&lt;br&gt;+ vytvoritRozpis(zapasy : vector&amp;lt;Zapas&amp;gt;) : void" style="text;strokeColor=none;fillColor=none;align=left;verticalAlign=top;spacingLeft=4;spacingRight=4;overflow=hidden;rotatable=0;points=[[0,0.5],[1,0.5]];portConstraint=eastwest;whiteSpace=wrap;html=1;" vertex="1" parent="VudI-zjtM5ZN9jTIgjhd-21">
          <mxGeometry y="34" width="280" height="126" as="geometry" />
        </mxCell>
        <mxCell id="VudI-zjtM5ZN9jTIgjhd-25" value="System" style="swimlane;fontStyle=1;align=center;verticalAlign=top;childLayout=stackLayout;horizontal=1;startSize=26;horizontalStack=0;resizeParent=1;resizeParentMax=0;resizeLast=0;collapsible=1;marginBottom=0;whiteSpace=wrap;html=1;" vertex="1" parent="1">
          <mxGeometry x="130" y="730" width="280" height="72" as="geometry" />
        </mxCell>
        <mxCell id="VudI-zjtM5ZN9jTIgjhd-27" value="" style="line;strokeWidth=1;fillColor=none;align=left;verticalAlign=middle;spacingTop=-1;spacingLeft=3;spacingRight=3;rotatable=0;labelPosition=right;points=[];portConstraint=eastwest;strokeColor=inherit;" vertex="1" parent="VudI-zjtM5ZN9jTIgjhd-25">
          <mxGeometry y="26" width="280" height="20" as="geometry" />
        </mxCell>
        <mxCell id="VudI-zjtM5ZN9jTIgjhd-28" value="-Odeslat Rozpis(uzivatele : vector &amp;lt;User&amp;gt;) : void" style="text;strokeColor=none;fillColor=none;align=left;verticalAlign=top;spacingLeft=4;spacingRight=4;overflow=hidden;rotatable=0;points=[[0,0.5],[1,0.5]];portConstraint=eastwest;whiteSpace=wrap;html=1;" vertex="1" parent="VudI-zjtM5ZN9jTIgjhd-25">
          <mxGeometry y="46" width="280" height="26" as="geometry" />
        </mxCell>
        <mxCell id="VudI-zjtM5ZN9jTIgjhd-29" value="Rozpis" style="swimlane;fontStyle=1;align=center;verticalAlign=top;childLayout=stackLayout;horizontal=1;startSize=26;horizontalStack=0;resizeParent=1;resizeParentMax=0;resizeLast=0;collapsible=1;marginBottom=0;whiteSpace=wrap;html=1;" vertex="1" parent="1">
          <mxGeometry x="600" y="700" width="190" height="86" as="geometry" />
        </mxCell>
        <mxCell id="VudI-zjtM5ZN9jTIgjhd-30" value="- seznamZapasu : vector&amp;lt;Zapas&amp;gt;" style="text;strokeColor=none;fillColor=none;align=left;verticalAlign=top;spacingLeft=4;spacingRight=4;overflow=hidden;rotatable=0;points=[[0,0.5],[1,0.5]];portConstraint=eastwest;whiteSpace=wrap;html=1;" vertex="1" parent="VudI-zjtM5ZN9jTIgjhd-29">
          <mxGeometry y="26" width="190" height="26" as="geometry" />
        </mxCell>
        <mxCell id="VudI-zjtM5ZN9jTIgjhd-31" value="" style="line;strokeWidth=1;fillColor=none;align=left;verticalAlign=middle;spacingTop=-1;spacingLeft=3;spacingRight=3;rotatable=0;labelPosition=right;points=[];portConstraint=eastwest;strokeColor=inherit;" vertex="1" parent="VudI-zjtM5ZN9jTIgjhd-29">
          <mxGeometry y="52" width="190" height="8" as="geometry" />
        </mxCell>
        <mxCell id="VudI-zjtM5ZN9jTIgjhd-32" value="VypisRozpis() : string" style="text;strokeColor=none;fillColor=none;align=left;verticalAlign=top;spacingLeft=4;spacingRight=4;overflow=hidden;rotatable=0;points=[[0,0.5],[1,0.5]];portConstraint=eastwest;whiteSpace=wrap;html=1;" vertex="1" parent="VudI-zjtM5ZN9jTIgjhd-29">
          <mxGeometry y="60" width="190" height="26" as="geometry" />
        </mxCell>
        <mxCell id="VudI-zjtM5ZN9jTIgjhd-35" style="edgeStyle=orthogonalEdgeStyle;rounded=0;orthogonalLoop=1;jettySize=auto;html=1;entryX=1;entryY=0.5;entryDx=0;entryDy=0;endArrow=open;endFill=0;endSize=12;" edge="1" parent="1" source="VudI-zjtM5ZN9jTIgjhd-18" target="VudI-zjtM5ZN9jTIgjhd-6">
          <mxGeometry relative="1" as="geometry" />
        </mxCell>
        <mxCell id="VudI-zjtM5ZN9jTIgjhd-44" value="Komentar" style="swimlane;fontStyle=1;align=center;verticalAlign=top;childLayout=stackLayout;horizontal=1;startSize=26;horizontalStack=0;resizeParent=1;resizeParentMax=0;resizeLast=0;collapsible=1;marginBottom=0;whiteSpace=wrap;html=1;" vertex="1" parent="1">
          <mxGeometry x="414" y="300" width="160" height="104" as="geometry" />
        </mxCell>
        <mxCell id="VudI-zjtM5ZN9jTIgjhd-45" value="+datum : DateTime&lt;br&gt;+text : string" style="text;strokeColor=none;fillColor=none;align=left;verticalAlign=top;spacingLeft=4;spacingRight=4;overflow=hidden;rotatable=0;points=[[0,0.5],[1,0.5]];portConstraint=eastwest;whiteSpace=wrap;html=1;" vertex="1" parent="VudI-zjtM5ZN9jTIgjhd-44">
          <mxGeometry y="26" width="160" height="44" as="geometry" />
        </mxCell>
        <mxCell id="VudI-zjtM5ZN9jTIgjhd-46" value="" style="line;strokeWidth=1;fillColor=none;align=left;verticalAlign=middle;spacingTop=-1;spacingLeft=3;spacingRight=3;rotatable=0;labelPosition=right;points=[];portConstraint=eastwest;strokeColor=inherit;" vertex="1" parent="VudI-zjtM5ZN9jTIgjhd-44">
          <mxGeometry y="70" width="160" height="8" as="geometry" />
        </mxCell>
        <mxCell id="VudI-zjtM5ZN9jTIgjhd-47" value="+vypis() : void" style="text;strokeColor=none;fillColor=none;align=left;verticalAlign=top;spacingLeft=4;spacingRight=4;overflow=hidden;rotatable=0;points=[[0,0.5],[1,0.5]];portConstraint=eastwest;whiteSpace=wrap;html=1;" vertex="1" parent="VudI-zjtM5ZN9jTIgjhd-44">
          <mxGeometry y="78" width="160" height="26" as="geometry" />
        </mxCell>
        <mxCell id="VudI-zjtM5ZN9jTIgjhd-48" style="edgeStyle=orthogonalEdgeStyle;rounded=0;orthogonalLoop=1;jettySize=auto;html=1;entryX=1.019;entryY=0.852;entryDx=0;entryDy=0;entryPerimeter=0;endArrow=open;endFill=0;endSize=12;" edge="1" parent="1" source="VudI-zjtM5ZN9jTIgjhd-45" target="VudI-zjtM5ZN9jTIgjhd-6">
          <mxGeometry relative="1" as="geometry" />
        </mxCell>
        <mxCell id="VudI-zjtM5ZN9jTIgjhd-49" style="edgeStyle=orthogonalEdgeStyle;rounded=0;orthogonalLoop=1;jettySize=auto;html=1;entryX=0.119;entryY=1.038;entryDx=0;entryDy=0;entryPerimeter=0;endArrow=none;endFill=0;startArrow=diamondThin;startFill=0;endSize=6;startSize=20;" edge="1" parent="1" source="VudI-zjtM5ZN9jTIgjhd-14" target="VudI-zjtM5ZN9jTIgjhd-47">
          <mxGeometry relative="1" as="geometry" />
        </mxCell>
        <mxCell id="VudI-zjtM5ZN9jTIgjhd-51" style="edgeStyle=orthogonalEdgeStyle;rounded=0;orthogonalLoop=1;jettySize=auto;html=1;entryX=1.014;entryY=0.206;entryDx=0;entryDy=0;entryPerimeter=0;endArrow=open;endFill=0;endSize=12;" edge="1" parent="1" source="VudI-zjtM5ZN9jTIgjhd-30" target="VudI-zjtM5ZN9jTIgjhd-24">
          <mxGeometry relative="1" as="geometry" />
        </mxCell>
        <mxCell id="VudI-zjtM5ZN9jTIgjhd-56" style="edgeStyle=orthogonalEdgeStyle;rounded=0;orthogonalLoop=1;jettySize=auto;html=1;entryX=1.004;entryY=0.154;entryDx=0;entryDy=0;entryPerimeter=0;endArrow=open;endFill=0;endSize=12;" edge="1" parent="1" source="VudI-zjtM5ZN9jTIgjhd-32" target="VudI-zjtM5ZN9jTIgjhd-28">
          <mxGeometry relative="1" as="geometry" />
        </mxCell>
      </root>
    </mxGraphModel>
  </diagram>
</mxfile>
